<svg xmlns="http://www.w3.org/2000/svg" width="240" height="40" viewBox="0 0 240 40" fill="none" role="img" aria-label="GreggOS Coastal Command">
  <defs>
    <linearGradient id="lsea" x1="2" y1="6" x2="34" y2="34" gradientUnits="userSpaceOnUse">
      <stop offset="0" stop-color="#15788A"/>
      <stop offset="1" stop-color="#0B3A47"/>
    </linearGradient>
    <linearGradient id="lbody" x1="8" y1="14" x2="30" y2="26" gradientUnits="userSpaceOnUse">
      <stop offset="0" stop-color="#3FE0E0"/>
      <stop offset="1" stop-color="#15A3B0"/>
    </linearGradient>
  </defs>
  <rect x="2" y="6" width="28" height="28" rx="8" fill="url(#lsea)"/>
  <!-- mahi-mahi mark -->
  <path d="M9 20c2-2.4 5.2-3.2 8-2.4 1.3.4 2.2 1.1 2.7 2.4-.5 1.3-1.4 2-2.7 2.4-2.7.8-5.9.1-8-2.4Z" fill="url(#lbody)"/>
  <path d="M9 20 6.5 18.2M9 20 6.5 21.8" stroke="#3FE0E0" stroke-width="1.6" stroke-linecap="round"/>
  <path d="M12 20.3c2-.7 4-.6 6 .2" stroke="#F4623A" stroke-width="1.4" stroke-linecap="round"/>
  <circle cx="19.4" cy="19.3" r="1" fill="#06212A"/>
  <text x="40" y="18" font-family="'Cabinet Grotesk', Inter, system-ui, sans-serif" font-size="14" font-weight="800" fill="#0B3A47">GreggOS</text>
  <text x="40" y="33" font-family="'Cabinet Grotesk', Inter, system-ui, sans-serif" font-size="12" font-weight="700" fill="#15A3B0">Coastal Command</text>
</svg>
